<?xml version="1.0" encoding="UTF-8" standalone="no"?>
<svg
   xmlns:dc="http://purl.org/dc/elements/1.1/"
   xmlns:cc="http://creativecommons.org/ns#"
   xmlns:rdf="http://www.w3.org/1999/02/22-rdf-syntax-ns#"
   xmlns:svg="http://www.w3.org/2000/svg"
   xmlns="http://www.w3.org/2000/svg"
   xmlns:sodipodi="http://sodipodi.sourceforge.net/DTD/sodipodi-0.dtd"
   xmlns:inkscape="http://www.inkscape.org/namespaces/inkscape"
   width="734.28741mm"
   height="74.129608mm"
   viewBox="0 0 734.2874 74.129607"
   version="1.1"
   id="svg8"
   inkscape:version="1.0.2 (1.0.2+r75+1)"
   sodipodi:docname="mossmark_logo.svg">
  <defs
     id="defs2">
    <rect
       x="-294.08362"
       y="127.86165"
       width="1381.6539"
       height="386.88632"
       id="rect2830" />
    <rect
       x="294.38272"
       y="188.58714"
       width="65.286156"
       height="28.747292"
       id="rect1394" />
    <rect
       x="81.001572"
       y="216.90247"
       width="110.04559"
       height="77.203766"
       id="rect945" />
    <rect
       x="91.332047"
       y="146.15253"
       width="67.642151"
       height="45.318932"
       id="rect856" />
    <rect
       x="81.001572"
       y="216.90247"
       width="110.04559"
       height="77.203766"
       id="rect945-6" />
    <rect
       x="81.001572"
       y="216.90247"
       width="110.04559"
       height="77.203766"
       id="rect958" />
    <rect
       x="81.001572"
       y="216.90247"
       width="110.04559"
       height="77.203766"
       id="rect945-6-3" />
    <rect
       x="81.001572"
       y="216.90247"
       width="110.04559"
       height="77.203766"
       id="rect1010" />
    <rect
       x="81.001572"
       y="216.90247"
       width="110.04559"
       height="77.203766"
       id="rect945-0" />
    <rect
       x="81.001572"
       y="216.90247"
       width="110.04559"
       height="77.203766"
       id="rect1045" />
    <rect
       x="81.001572"
       y="216.90247"
       width="110.04559"
       height="77.203766"
       id="rect945-9" />
    <rect
       x="81.001572"
       y="216.90247"
       width="110.04559"
       height="77.203766"
       id="rect1136" />
    <rect
       x="81.001572"
       y="216.90247"
       width="110.04559"
       height="77.203766"
       id="rect945-9-9" />
    <rect
       x="81.001572"
       y="216.90247"
       width="110.04559"
       height="77.203766"
       id="rect1190" />
    <rect
       x="294.38272"
       y="188.58714"
       width="65.286156"
       height="28.747292"
       id="rect1394-4" />
    <rect
       x="294.38272"
       y="188.58714"
       width="65.286156"
       height="28.747292"
       id="rect1455" />
    <rect
       x="294.38272"
       y="188.58714"
       width="65.286156"
       height="28.747292"
       id="rect1394-4-9" />
    <rect
       x="294.38272"
       y="188.58714"
       width="65.286156"
       height="28.747292"
       id="rect2121" />
    <rect
       x="-294.08362"
       y="127.86165"
       width="1381.6539"
       height="386.88632"
       id="rect2830-2" />
    <rect
       x="-294.08362"
       y="127.86165"
       width="1381.6539"
       height="386.88632"
       id="rect2843" />
    <rect
       x="-294.08362"
       y="127.86165"
       width="1381.6539"
       height="386.88632"
       id="rect2830-2-2" />
    <rect
       x="-294.08362"
       y="127.86165"
       width="1381.6539"
       height="386.88632"
       id="rect3171" />
  </defs>
  <sodipodi:namedview
     id="base"
     pagecolor="#ffffff"
     bordercolor="#666666"
     borderopacity="1.0"
     inkscape:pageopacity="0.0"
     inkscape:pageshadow="2"
     inkscape:zoom="0.125"
     inkscape:cx="2809.8853"
     inkscape:cy="-1062.0342"
     inkscape:document-units="mm"
     inkscape:current-layer="layer1"
     inkscape:document-rotation="0"
     showgrid="false"
     inkscape:window-width="2506"
     inkscape:window-height="1376"
     inkscape:window-x="54"
     inkscape:window-y="27"
     inkscape:window-maximized="1"
     fit-margin-top="0"
     fit-margin-left="0"
     fit-margin-right="0"
     fit-margin-bottom="0" />
  <metadata
     id="metadata5">
    <rdf:RDF>
      <cc:Work
         rdf:about="">
        <dc:format>image/svg+xml</dc:format>
        <dc:type
           rdf:resource="http://purl.org/dc/dcmitype/StillImage" />
        <dc:title></dc:title>
      </cc:Work>
    </rdf:RDF>
  </metadata>
  <g
     inkscape:label="Layer 1"
     inkscape:groupmode="layer"
     id="layer1"
     transform="translate(52.609587,-630.48851)">
    <g
       aria-label="Mossmark Co."
       transform="matrix(11.615911,0,0,11.615911,-3478.2809,-1595.4943)"
       id="text1392-1"
       style="font-style:normal;font-variant:normal;font-weight:normal;font-stretch:normal;font-size:10.5833px;line-height:1.25;font-family:'Glacial Indifference';-inkscape-font-specification:'Glacial Indifference';letter-spacing:0px;word-spacing:0px;white-space:pre;shape-inside:url(#rect1394-4);fill:#e6e6e6;fill-opacity:1;stroke:none">
      <path
         d="m 294.91198,198.00337 h 1.55574 v -6.31823 l -1.55574,1.22766 z m 6.29706,-6.31823 c -0.254,0 -0.508,0.0847 -0.70908,0.24342 l -0.75141,0.59266 h 1.05833 v 5.48215 h 1.56632 v -5.16465 c 0,-0.635 -0.51858,-1.15358 -1.16416,-1.15358 z m -2.95274,0 c -0.254,0 -0.508,0.0847 -0.70908,0.24342 l -0.79375,0.61383 h 1.10066 v 5.46098 h 1.56633 v -5.16465 c 0,-0.635 -0.51858,-1.15358 -1.16416,-1.15358 z"
         style="font-style:normal;font-variant:normal;font-weight:normal;font-stretch:normal;font-family:Stanley;-inkscape-font-specification:Stanley;fill:#e6e6e6;fill-opacity:1"
         id="path2149" />
      <path
         d="m 305.65402,192.92339 c -1.21708,0 -2.58232,0.99483 -2.58232,2.53999 0,1.53458 1.36524,2.52941 2.58232,2.52941 -0.41274,-0.20109 -0.81491,-1.25942 -0.81491,-2.52941 0,-1.27 0.32808,-2.32833 0.81491,-2.53999 z m 0.24342,0 c 0.47625,0.21166 0.81491,1.26999 0.81491,2.53999 0,1.26999 -0.40216,2.32832 -0.81491,2.52941 1.2065,0 2.58233,-0.99483 2.58233,-2.52941 0,-1.54516 -1.37583,-2.53999 -2.58233,-2.53999 z"
         style="font-style:normal;font-variant:normal;font-weight:normal;font-stretch:normal;font-family:Stanley;-inkscape-font-specification:Stanley;fill:#e6e6e6;fill-opacity:1"
         id="path2151" />
      <path
         d="m 312.26857,195.63271 c -0.0317,-0.0423 -2.21191,-1.86266 -2.22249,-1.87324 -0.0953,-0.0847 -0.15875,-0.21167 -0.15875,-0.34925 0,-0.27517 0.22225,-0.48683 0.48683,-0.48683 -0.34925,0 -0.66675,0.127 -0.91016,0.34924 -0.28575,0.24342 -0.45509,0.61384 -0.45509,1.016 0,0.39158 0.15875,0.75142 0.42334,0.99483 0.0423,0.0423 2.21191,1.86266 2.22249,1.87325 0.10583,0.0847 0.15875,0.21166 0.15875,0.35983 0,0.26458 -0.21167,0.47625 -0.47625,0.47625 0.34925,0 0.66675,-0.127 0.91016,-0.34925 0.27517,-0.24342 0.45509,-0.61383 0.45509,-1.016 0,-0.39158 -0.16934,-0.75141 -0.43392,-0.99483 z m 0.17992,-2.70932 h -1.80975 l 1.80975,1.51341 z m -2.64583,3.50307 c -0.43391,0 -0.78316,0.34925 -0.78316,0.78316 0,0.43392 0.34925,0.78317 0.78316,0.78317 0.43392,0 0.78317,-0.34925 0.78317,-0.78317 0,-0.43391 -0.34925,-0.78316 -0.78317,-0.78316 z"
         style="font-style:normal;font-variant:normal;font-weight:normal;font-stretch:normal;font-family:Stanley;-inkscape-font-specification:Stanley;fill:#e6e6e6;fill-opacity:1"
         id="path2153" />
      <path
         d="m 316.71354,195.63271 c -0.0318,-0.0423 -2.21191,-1.86266 -2.2225,-1.87324 -0.0953,-0.0847 -0.15875,-0.21167 -0.15875,-0.34925 0,-0.27517 0.22225,-0.48683 0.48684,-0.48683 -0.34925,0 -0.66675,0.127 -0.91017,0.34924 -0.28575,0.24342 -0.45508,0.61384 -0.45508,1.016 0,0.39158 0.15875,0.75142 0.42333,0.99483 0.0423,0.0423 2.21191,1.86266 2.2225,1.87325 0.10583,0.0847 0.15875,0.21166 0.15875,0.35983 0,0.26458 -0.21167,0.47625 -0.47625,0.47625 0.34925,0 0.66674,-0.127 0.91016,-0.34925 0.27517,-0.24342 0.45508,-0.61383 0.45508,-1.016 0,-0.39158 -0.16933,-0.75141 -0.43391,-0.99483 z m 0.17991,-2.70932 h -1.80974 l 1.80974,1.51341 z m -2.64582,3.50307 c -0.43392,0 -0.78317,0.34925 -0.78317,0.78316 0,0.43392 0.34925,0.78317 0.78317,0.78317 0.43391,0 0.78316,-0.34925 0.78316,-0.78317 0,-0.43391 -0.34925,-0.78316 -0.78316,-0.78316 z"
         style="font-style:normal;font-variant:normal;font-weight:normal;font-stretch:normal;font-family:Stanley;-inkscape-font-specification:Stanley;fill:#e6e6e6;fill-opacity:1"
         id="path2155" />
      <path
         d="m 318.0576,197.99279 h 1.55574 v -5.0694 l -1.55574,1.22766 z m 6.29706,-5.0694 c -0.254,0 -0.508,0.0847 -0.70908,0.24341 l -0.75142,0.59267 h 1.05833 v 4.23332 h 1.56633 v -3.91582 c 0,-0.635 -0.51858,-1.15358 -1.16416,-1.15358 z m -2.95274,0 c -0.254,0 -0.508,0.0847 -0.70908,0.24341 l -0.79375,0.61383 h 1.10066 v 4.21216 h 1.56633 v -3.91582 c 0,-0.635 -0.51858,-1.15358 -1.16416,-1.15358 z"
         style="font-style:normal;font-variant:normal;font-weight:normal;font-stretch:normal;font-family:Stanley;-inkscape-font-specification:Stanley;fill:#e6e6e6;fill-opacity:1"
         id="path2157" />
      <path
         d="m 327.73073,194.51088 c 0.43391,0 0.79375,-0.34925 0.79375,-0.79375 0,-0.43391 -0.35984,-0.79374 -0.79375,-0.79374 -0.4445,0 -0.79375,0.35983 -0.79375,0.79374 0,0.4445 0.34925,0.79375 0.79375,0.79375 z m 1.22766,0.78317 c -0.24341,-0.0952 -0.51858,-0.15875 -0.80433,-0.15875 -0.9525,0 -1.72508,0.64558 -1.72508,1.43932 0,0.79375 0.77258,1.43933 1.72508,1.43933 0.28575,0 0.56092,-0.0635 0.80433,-0.15875 -0.56091,-0.24341 -0.94191,-0.73024 -0.94191,-1.28058 0,-0.55033 0.381,-1.03716 0.94191,-1.28057 z m 1.79916,1.86266 v -3.07974 c 0,-0.635 -0.51858,-1.15358 -1.16416,-1.15358 -0.13758,0 -0.27517,0.0212 -0.40217,0.0741 v 3.84174 c 0,0.63499 0.51859,1.15358 1.16417,1.15358 0.26458,0 0.51858,-0.0847 0.71966,-0.24342 l 0.75142,-0.59266 z"
         style="font-style:normal;font-variant:normal;font-weight:normal;font-stretch:normal;font-family:Stanley;-inkscape-font-specification:Stanley;fill:#e6e6e6;fill-opacity:1"
         id="path2159" />
      <path
         d="m 335.13903,192.92339 c -0.4445,0 -0.79374,0.34924 -0.79374,0.79374 0,0.43392 0.34924,0.79375 0.79374,0.79375 0.43392,0 0.79375,-0.35983 0.79375,-0.79375 0,-0.4445 -0.35983,-0.79374 -0.79375,-0.79374 z m -1.37583,5.0694 v -5.07999 h -1.55574 v 5.07999 z"
         style="font-style:normal;font-variant:normal;font-weight:normal;font-stretch:normal;font-family:Stanley;-inkscape-font-specification:Stanley;fill:#e6e6e6;fill-opacity:1"
         id="path2161" />
      <path
         d="m 336.31377,192.85989 v 5.1329 h 1.55574 v -6.36057 z m 2.77282,0.0635 v 1.50282 l 1.80975,-1.50282 z m 0,1.97907 -1.21708,1.00542 1.30175,2.08491 h 1.85208 z"
         style="font-style:normal;font-variant:normal;font-weight:normal;font-stretch:normal;font-family:Stanley;-inkscape-font-specification:Stanley;fill:#e6e6e6;fill-opacity:1"
         id="path2163" />
      <path
         d="m 350.01913,196.98737 c -1.86267,0.41275 -3.52424,-0.4445 -3.91583,-2.16957 -0.32808,-1.48167 0.4445,-2.58233 1.13242,-3.16441 -1.7145,0.28575 -2.88924,1.88383 -2.63524,3.60891 0.254,1.73566 1.86266,2.94215 3.6089,2.68815 0.74083,-0.10583 1.38641,-0.45508 1.86266,-0.97366 -0.0106,0.0106 -0.0317,0.0106 -0.0529,0.0106 z m -1.397,-3.38665 c 0.53975,0 0.98425,-0.43392 0.98425,-0.98425 0,-0.53975 -0.4445,-0.98425 -0.98425,-0.98425 -0.53975,0 -0.98425,0.4445 -0.98425,0.98425 0,0.55033 0.4445,0.98425 0.98425,0.98425 z"
         style="font-style:normal;font-variant:normal;font-weight:normal;font-stretch:normal;font-family:Stanley;-inkscape-font-specification:Stanley;fill:#e6e6e6;fill-opacity:1"
         id="path2165" />
      <path
         d="m 353.19411,192.92339 c -1.21708,0 -2.58232,0.99483 -2.58232,2.53999 0,1.53458 1.36524,2.52941 2.58232,2.52941 -0.41275,-0.20109 -0.81491,-1.25942 -0.81491,-2.52941 0,-1.27 0.32808,-2.32833 0.81491,-2.53999 z m 0.24342,0 c 0.47625,0.21166 0.81491,1.26999 0.81491,2.53999 0,1.26999 -0.40216,2.32832 -0.81491,2.52941 1.20649,0 2.58232,-0.99483 2.58232,-2.52941 0,-1.54516 -1.37583,-2.53999 -2.58232,-2.53999 z"
         style="font-style:normal;font-variant:normal;font-weight:normal;font-stretch:normal;font-family:Stanley;-inkscape-font-specification:Stanley;fill:#e6e6e6;fill-opacity:1"
         id="path2167" />
      <path
         d="m 357.33216,196.40529 c -0.43391,0 -0.78316,0.35983 -0.78316,0.79375 0,0.43391 0.34925,0.79375 0.78316,0.79375 0.4445,0 0.79375,-0.35984 0.79375,-0.79375 0,-0.43392 -0.34925,-0.79375 -0.79375,-0.79375 z"
         style="font-style:normal;font-variant:normal;font-weight:normal;font-stretch:normal;font-family:Stanley;-inkscape-font-specification:Stanley;fill:#e6e6e6;fill-opacity:1"
         id="path2169" />
    </g>
  </g>
</svg>
